PathFileType	4	(X/Y/Z)	RBDS023\RBDS023runT25.trc
DataRate	CameraRate	NumFrames	NumMarkers	Units	OrigDataRate	OrigDataStartFrame	OrigNumFrames
150.000000	150.000000	5	33	mm	150.000000	2812	4500
Frame#	Time	L.ASIS			L.Heel.Bottom			L.Heel.Lateral			L.Heel.Top			L.Iliac.Crest			L.MT1			L.MT5			L.PSIS			L.Shank.Bottom.Lateral			L.Shank.Bottom.Medial			L.Shank.Top.Lateral			L.Shank.Top.Medial			L.Thigh.Bottom.Lateral			L.Thigh.Bottom.Medial			L.Thigh.Top.Lateral			L.Thigh.Top.Medial			R.ASIS			R.ASY			R.Heel.Bottom			R.Heel.Lateral			R.Heel.Top			R.Iliac.Crest			R.MT1			R.MT5			R.PSIS			R.Shank.Bottom.Lateral			R.Shank.Bottom.Medial			R.Shank.Top.Lateral			R.Shank.Top.Medial			R.Thigh.Bottom.Lateral			R.Thigh.Bottom.Medial			R.Thigh.Top.Lateral			R.Thigh.Top.Medial			
		X1	Y1	Z1	X2	Y2	Z2	X3	Y3	Z3	X4	Y4	Z4	X5	Y5	Z5	X6	Y6	Z6	X7	Y7	Z7	X8	Y8	Z8	X9	Y9	Z9	X10	Y10	Z10	X11	Y11	Z11	X12	Y12	Z12	X13	Y13	Z13	X14	Y14	Z14	X15	Y15	Z15	X16	Y16	Z16	X17	Y17	Z17	X18	Y18	Z18	X19	Y19	Z19	X20	Y20	Z20	X21	Y21	Z21	X22	Y22	Z22	X23	Y23	Z23	X24	Y24	Z24	X25	Y25	Z25	X26	Y26	Z26	X27	Y27	Z27	X28	Y28	Z28	X29	Y29	Z29	X30	Y30	Z30	X31	Y31	Z31	X32	Y32	Z32	X33	Y33	Z33	

2813	18.74666666666667	2430.995960818098	1010.100049606729	893.3916515887441	1800.58810020627	452.8688053857454	934.9188017742525	1820.225747013187	426.5536598710691	893.8554204722062	1847.437421234283	446.5626048165367	934.6465593860106	2376.915490376471	1086.019792968561	839.2932036661435	1833.97047613102	232.8566453190497	974.5077323952264	1814.0232449167	261.7519553966506	863.3090292262369	2246.342442978339	1040.395570478854	926.9734784640234	1940.567418130162	405.4044802213095	875.7721435147574	1926.592892915518	443.5185977199102	907.1353890721758	2013.087027706586	439.4659376512748	863.6482666896808	2003.458661133717	477.9585661280751	898.5180249484022	2314.297967999407	642.3173043053038	835.7783589656025	2253.338032620655	649.3086961816906	873.0181899381761	2314.870918169739	751.5003459096172	822.3438431921937	2258.032112884714	758.7366135194223	859.5640582873058	2410.424327111291	1016.347580349112	1103.711408376402	2566.571728541375	85.06389597398464	1018.088461359329	2378.910984512497	24.22842725448402	993.1945766751587	2404.509668632483	42.0679370341629	1038.991631185451	2388.491981835509	70.67958624119787	993.7262861918319	2325.647547044617	1093.666996657078	1142.714932239729	2604.309457417805	44.58455437427262	970.4153872721374	2567.94208031942	33.90235431990924	1081.914247959088	2235.745089575077	1044.821439003269	1036.057557263737	2458.474641704344	155.443518203691	1068.367280764623	2410.237823082663	160.7206783903399	1040.753530265351	2449.628070132026	231.5489132952147	1095.511389355339	2403.804227874466	236.6260447467496	1066.369963530723	2423.772990782054	624.9005325142366	1138.720000831736	2371.662883898722	604.2125264053775	1091.946098465444	2371.26830059614	720.4501232110449	1150.951679406514	2322.858662915142	701.5269888869296	1105.341641361904	
2814	18.75333333333333	2429.60309110229	1003.735893048453	893.2081520790971	1811.163430018872	459.6535214114904	932.6719215990269	1830.51957872273	433.1848916936844	891.4996485379007	1857.782799324148	452.1566992644553	932.8487835420249	2375.419598644499	1077.995489622513	837.875725487698	1839.003275780404	238.3933311445462	970.5191552326486	1820.748643717408	268.8079499472701	859.4694242493948	2244.792962348474	1033.680431590846	926.0906894311535	1950.254040337333	408.5974735609832	873.6455220182927	1937.253052770432	447.1186276007853	905.0086046840066	2023.671495215871	440.5444757591912	861.802692041262	2015.144117713565	479.2403261049006	896.7694061281912	2320.958308151914	636.1444873082612	834.7951859414368	2259.925919067765	641.5596865131415	872.0513036277214	2319.029717012083	745.4492308772893	821.6949658369518	2261.983841949628	751.1436537133183	858.9327982984597	2408.412339997565	1011.204270036508	1103.40558723436	2552.720346548256	81.93258177261063	1016.900549812641	2362.885188446302	25.60866844730817	992.9689104057499	2388.908446081848	43.34962175163737	1038.581543047922	2373.793345771072	72.00813359080304	992.9977763604676	2323.61669267366	1086.684815915443	1142.581302695115	2589.570397347932	40.88857473414821	969.578964449644	2552.655531009516	32.02586402729016	1081.828082449415	2233.668782554116	1039.148389521209	1034.822481567091	2448.761964875179	154.3056796287963	1067.721842584176	2400.694886246817	161.6388174699263	1040.413044898099	2443.117450433335	230.5431011089762	1095.320268925021	2397.359206177996	237.5716692196676	1066.484162789895	2424.824386799864	621.525389891895	1139.834632341146	2373.708937186074	600.4717129857328	1092.17563822611	2371.056482088607	716.4383434049047	1151.571685725819	2323.541245884928	697.1454835158328	1105.133555976784	
2815	18.76	2428.001415118617	997.3322176683325	893.0199805670147	1822.212750080683	465.3145306998853	930.5289613437334	1841.442978296478	438.7834300889973	889.2729498443312	1868.597813224451	456.8002568657254	931.1588409660446	2373.581810362731	1069.989518752102	836.4882726664638	1845.36998859339	243.0662309394938	966.6048201184818	1828.862485129536	274.8824515386841	855.7077005241375	2243.168788668248	1027.458523208788	925.2376124462268	1960.60729387502	411.1225024029347	871.6318366471892	1948.46667676137	450.0338511927707	902.931124950618	2034.786767729332	441.1328012547355	860.0103696914001	2027.212143361284	480.0574284576251	895.0072208499301	2327.82042704234	630.3992243849815	833.7905255632448	2266.620626673088	634.186473433203	870.824399651376	2323.329810116287	739.7699890846719	821.0610605486236	2266.030697913568	743.8707433390481	858.147368826237	2406.266949155837	1006.244892286586	1103.217583683378	2538.257620845941	79.86479870455754	1015.84159165868	2346.897053505328	26.88568195202942	992.8005590656993	2373.198745289398	44.62887931829253	1038.263572578777	2358.785402002612	73.24575641328025	992.4073019767633	2321.348179498954	1079.76144648891	1142.428319595341	2574.425297953259	38.66157131061359	968.9096361346694	2537.082916241578	31.20681139535587	1081.804334460192	2231.5227495129	1033.894356236915	1033.527285127379	2438.33898936275	153.5947004931356	1067.198361598589	2390.554173450278	162.9584751120439	1040.143819916607	2435.871863474262	229.8550033122851	1095.21050741431	2390.266328856607	238.8013822255351	1066.647398913844	2425.194168632341	618.2355536053462	1140.897868120088	2375.124549575718	596.9812319520829	1092.251080827034	2370.355727072765	712.6031851003099	1152.155208257403	2323.766737405242	693.0914007187982	1104.811712912658	
2816	18.76666666666667	2426.21612842027	991.0173043651537	892.8126139562586	1833.592932911385	469.8116628710835	928.4536426741125	1852.873122441418	443.3030575733913	887.1551374288208	1879.76173295168	460.4810055084503	929.5402851870449	2371.357036106185	1062.222262558367	835.1825540098478	1853.024635864177	246.8172664143481	962.8306533195992	1838.311071087722	279.8770449110141	852.0723901876157	2241.49366677876	1021.828245819069	924.4323440627209	1971.54079674381	412.9720067952742	869.7463603652067	1960.137863127542	452.2583467838103	900.9190346062027	2046.362857511737	441.250567715936	858.3023633535277	2039.58098362883	480.4351502687437	893.2552689651242	2334.90693239692	625.154800045318	832.7875445816203	2273.452620018509	627.2541817013646	869.3722889684797	2327.786303589892	734.5235162078169	820.4610061339754	2270.195364793728	736.9771772774681	857.2316788096916	2404.048027717842	1001.577504693833	1103.18612114781	2523.235908314814	78.67075812703116	1014.945743546766	2330.912595908079	27.99669168135339	992.6903808233285	2357.372417107173	45.80980842062878	1038.038601742513	2343.469664103474	74.33145656538521	991.9652812370975	2318.804760053004	1073.036459774706	1142.249045345831	2558.916386485101	37.64060041554472	968.4247428850483	2521.248754211241	31.1773341230051	1081.82744060692	2229.352384336873	1029.133519790889	1032.202088007591	2427.151580828405	153.176589031338	1066.817011711158	2379.737146810716	164.498446936561	1039.975780120404	2427.77766838998	229.358716906406	1095.187205781455	2382.393607936277	240.1468966077234	1066.875991264697	2424.777233600252	615.031669667143	1141.857041630211	2375.72901986228	593.7455511152688	1092.191930018506	2369.136391634507	708.9880809416046	1152.666490445913	2323.44440394734	689.4193070407827	1104.399113257542	
2817	18.77333333333333	2424.281716834145	984.9339971448924	892.5692766952812	1845.176905784367	473.117664675129	926.4085504176567	1864.693441914419	446.708810835915	885.1229779765945	1891.16787235442	463.1946903902552	927.9554250132717	2368.731074972889	1054.923326540304	834.0026951820689	1861.904644849223	249.5948969562596	959.2594742604974	1849.015045497908	283.7075377899061	848.6103590194469	2239.788366539362	1016.858087941169	923.6939397679827	1982.969847453084	414.1414683048256	867.9992690806937	1972.171724377906	453.7879349785324	898.9839142261067	2058.327716497457	440.9205735582666	856.7050795268871	2052.170190968114	480.3976467880847	891.5330526990803	2342.224922743973	620.4831574758039	831.8064923173381	2280.448437062252	620.8285516730888	867.7425501031812	2332.403543161422	729.7698672544852	819.9090775624362	2274.494096782837	730.5222760769097	856.2142577112701	2401.822016027106	997.2940448810077	1103.32530863439	2507.714288757274	78.12663201725697	1014.229793760867	2314.879165703749	28.90513633919738	992.6349173185549	2341.407691664883	46.82211353353543	1037.899693730357	2327.846210024955	75.22814511284298	991.669331280984	2315.98230707526	1066.65591873153	1142.042318803484	2543.079609008243	37.50926092524392	968.1208532175721	2505.170700493295	31.6547800556953	1081.879836928538	2227.203546205766	1024.926045087674	1030.890248677451	2415.183128078267	152.917749603309	1066.579078238106	2368.196025139191	166.0845121130544	1039.923752111288	2418.763819907183	228.9324983846801	1095.243291328775	2373.64713206564	241.4515653781215	1067.175766507456	2423.49358714856	611.9165029919338	1142.676525765751	2375.362947002255	590.7595994384393	1092.041527593417	2367.378414002425	705.6314585306386	1153.085108129977	2322.491836669725	686.1673957152613	1103.93784959039	
